<mxfile host="app.diagrams.net" modified="2023-06-07T11:55:46.207Z" agent="Mozilla/5.0 (X11; Linux x86_64; rv:109.0) Gecko/20100101 Firefox/113.0" etag="31fthmHFwXaLMKX_5kY8" version="21.3.7" type="github">
  <diagram name="Page-1" id="oJ-QmYBrSM61RGGrIEL7">
    <mxGraphModel dx="1674" dy="715" grid="1" gridSize="10" guides="1" tooltips="1" connect="1" arrows="1" fold="1" page="1" pageScale="1" pageWidth="1169" pageHeight="1654" math="0" shadow="0">
      <root>
        <mxCell id="0" />
        <mxCell id="1" parent="0" />
        <mxCell id="QvpxfWlGN0dKraKTzxIx-1" value="m : Mitarbeiter" style="rounded=0;whiteSpace=wrap;html=1;" vertex="1" parent="1">
          <mxGeometry x="100" y="120" width="120" height="60" as="geometry" />
        </mxCell>
        <mxCell id="QvpxfWlGN0dKraKTzxIx-2" value="r : Rechnung" style="rounded=0;whiteSpace=wrap;html=1;" vertex="1" parent="1">
          <mxGeometry x="465" y="120" width="120" height="60" as="geometry" />
        </mxCell>
        <mxCell id="QvpxfWlGN0dKraKTzxIx-3" value="b : Buch" style="rounded=0;whiteSpace=wrap;html=1;" vertex="1" parent="1">
          <mxGeometry x="660" y="120" width="120" height="60" as="geometry" />
        </mxCell>
        <mxCell id="QvpxfWlGN0dKraKTzxIx-4" value="k : Kunde" style="rounded=0;whiteSpace=wrap;html=1;" vertex="1" parent="1">
          <mxGeometry x="280" y="120" width="120" height="60" as="geometry" />
        </mxCell>
      </root>
    </mxGraphModel>
  </diagram>
</mxfile>
